<?xml version="1.0" encoding="utf-8"?>
<!-- Generator: Adobe Illustrator 19.0.0, SVG Export Plug-In . SVG Version: 6.00 Build 0)  -->
<svg version="1.1" id="Forma_1_1_" xmlns="http://www.w3.org/2000/svg" xmlns:xlink="http://www.w3.org/1999/xlink" x="0px" y="0px"
	 viewBox="-279 281 240 240" style="enable-background:new -279 281 240 240;" xml:space="preserve">
<style type="text/css">
	.st0{fill:#F8F8F8;}
</style>
<g id="Forma_1">
	<g>
		<path class="st0" d="M-93.2,327.9l-26-43c0,0-39.3-0.9-63.6,0c-9.9,0.4-17.6,4.1-21,10.1l-31.4,54.6l25.2,13.1l35.6-55.1h29.7
			l23.9,37.7l-20.5,10.2l50.7,11l15.2-48.7L-93.2,327.9z"/>
	</g>
</g>
<g id="Forma_1_3_">
	<g>
		<path class="st0" d="M-44.2,414.4L-74,358.7l-23.7,16l28.1,59.6l-15,26.6l-43.5,2.4l1.8-23.5l-34.7,39.7l33,38.1l0.6-20.8l49-1.6
			c0,0,20.6-34.7,32.1-56.9C-41.7,429.2-41,420.4-44.2,414.4z"/>
	</g>
</g>
<g id="Forma_1_5_">
	<g>
		<path class="st0" d="M-164.5,466.6l-64-3.1l-15.3-26.5l18.9-40.6l19,12.9l-17-50.6l-48,11.7l17.4,10.5l-22.3,45.2
			c0,0,19.5,35.4,32.8,56.5c5.4,8.6,12.5,13.5,19.2,13.5l61.5-0.3L-164.5,466.6z"/>
	</g>
</g>
<circle class="st0" cx="-159" cy="401" r="36.3"/>
</svg>
