<svg version="1.1" id="Forma_1_1_" xmlns="http://www.w3.org/2000/svg" xmlns:xlink="http://www.w3.org/1999/xlink" x="0px" y="0px"
	 viewBox="0 0 240 240" style="enable-background:new 0 0 240 240;" xml:space="preserve">
<style type="text/css">
	.st0{fill-rule:evenodd;clip-rule:evenodd;fill:#80E190;}
</style>
<g id="Forma_1">
	<g>
		<path class="st0" d="M185.8,46.9l-26-43c0,0-39.3-0.9-63.6,0c-9.9,0.4-17.6,4.1-21,10.1L43.8,68.6L69,81.7l35.6-55.1l29.7,0
			l23.9,37.7l-20.5,10.2l50.7,11l15.2-48.7L185.8,46.9z"/>
	</g>
</g>
<g id="Forma_1_3_">
	<g>
		<path class="st0" d="M234.8,133.4L205,77.7l-23.7,16l28.1,59.6l-15,26.6l-43.5,2.4l1.8-23.5L118,198.5l33,38.1l0.6-20.8l49-1.6
			c0,0,20.6-34.7,32.1-56.9C237.3,148.2,238,139.4,234.8,133.4z"/>
	</g>
</g>
<g id="Forma_1_5_">
	<g>
		<path class="st0" d="M114.5,185.6l-64-3.1L35.2,156l18.9-40.6l19,12.9l-17-50.6L8.1,89.4l17.4,10.5L3.2,145.1
			c0,0,19.5,35.4,32.8,56.5c5.4,8.6,12.5,13.5,19.2,13.5l61.5-0.3L114.5,185.6z"/>
	</g>
</g>
<circle class="st0" cx="120" cy="120" r="36.3"/>
</svg>
